# xmcd
#
# Track frame offsets:
#	150
#	21278
#	37379
#	52224
#	69771
#	87331
#	101237
#	120858
#	134518
#	151704
#	169556
#	188836
#
# Disc length: 2624 seconds
#
# Revision: 1
# Processed by: cddbd v1.5.2PL0 Copyright (c) Steve Scherf et al.
# Submitted via: audiograbber 1.83.01
#
DISCID=9e0a3e0c
DTITLE=Kenny Rogers - The Love Of God
DYEAR=2011
DGENRE=Country
TTITLE0=Will The Circle Be Unbroken
TTITLE1=Peace
TTITLE2=I'll Fly Away (Feat. The Whites)
TTITLE3=The Rock Of Your Love
TTITLE4=In The Sweet By And By (Feat. Winfield's Locket)
TTITLE5=He Showed Me Love
TTITLE6=Grace
TTITLE7=What A Friend We Have In Jesus
TTITLE8=Circle Of Friends (Feat. Point Of Grace)
TTITLE9=For The Love Of God
TTITLE10=Amazing Grace
TTITLE11=Leaning On The Everlasting Arms
EXTD=
EXTT0=
EXTT1=
EXTT2=
EXTT3=
EXTT4=
EXTT5=
EXTT6=
EXTT7=
EXTT8=
EXTT9=
EXTT10=
EXTT11=
PLAYORDER=
